<?xml version="1.0" encoding="UTF-8" ?>
<svg version="1.1" width="21504" height="21504" xmlns="http://www.w3.org/2000/svg" shape-rendering="crispEdges">
<rect x="6144" y="3072" width="1024" height="1024" fill="#FFD480" />
<rect x="7168" y="3072" width="1024" height="1024" fill="#FFD480" />
<rect x="8192" y="3072" width="1024" height="1024" fill="#FFD480" />
<rect x="9216" y="3072" width="1024" height="1024" fill="#FFD480" />
<rect x="10240" y="3072" width="1024" height="1024" fill="#FFD480" />
<rect x="11264" y="3072" width="1024" height="1024" fill="#FFD480" />
<rect x="12288" y="3072" width="1024" height="1024" fill="#FFD480" />
<rect x="13312" y="3072" width="1024" height="1024" fill="#FFD480" />
<rect x="14336" y="3072" width="1024" height="1024" fill="#FFD480" />
<rect x="15360" y="3072" width="1024" height="1024" fill="#FFD480" />
<rect x="4096" y="4096" width="1024" height="1024" fill="#FFD480" />
<rect x="5120" y="4096" width="1024" height="1024" fill="#FFD480" />
<rect x="6144" y="4096" width="1024" height="1024" fill="#FFD480" />
<rect x="7168" y="4096" width="1024" height="1024" fill="#FFD480" />
<rect x="8192" y="4096" width="1024" height="1024" fill="#FFD480" />
<rect x="9216" y="4096" width="1024" height="1024" fill="#FFD480" />
<rect x="10240" y="4096" width="1024" height="1024" fill="#FFD480" />
<rect x="11264" y="4096" width="1024" height="1024" fill="#FFD480" />
<rect x="12288" y="4096" width="1024" height="1024" fill="#FFD480" />
<rect x="13312" y="4096" width="1024" height="1024" fill="#FFD480" />
<rect x="14336" y="4096" width="1024" height="1024" fill="#FFD480" />
<rect x="15360" y="4096" width="1024" height="1024" fill="#FFD480" />
<rect x="4096" y="5120" width="1024" height="1024" fill="#FFD480" />
<rect x="5120" y="5120" width="1024" height="1024" fill="#CD9373" />
<rect x="6144" y="5120" width="1024" height="1024" fill="#FFD480" />
<rect x="7168" y="5120" width="1024" height="1024" fill="#CD9373" />
<rect x="8192" y="5120" width="1024" height="1024" fill="#CD9373" />
<rect x="9216" y="5120" width="1024" height="1024" fill="#CD9373" />
<rect x="10240" y="5120" width="1024" height="1024" fill="#CD9373" />
<rect x="11264" y="5120" width="1024" height="1024" fill="#CD9373" />
<rect x="12288" y="5120" width="1024" height="1024" fill="#CD9373" />
<rect x="13312" y="5120" width="1024" height="1024" fill="#CD9373" />
<rect x="14336" y="5120" width="1024" height="1024" fill="#FFD480" />
<rect x="15360" y="5120" width="1024" height="1024" fill="#FFD480" />
<rect x="4096" y="6144" width="1024" height="1024" fill="#FFD480" />
<rect x="5120" y="6144" width="1024" height="1024" fill="#FFD480" />
<rect x="6144" y="6144" width="1024" height="1024" fill="#FFD480" />
<rect x="7168" y="6144" width="1024" height="1024" fill="#FFD480" />
<rect x="8192" y="6144" width="1024" height="1024" fill="#FFD480" />
<rect x="9216" y="6144" width="1024" height="1024" fill="#FFD480" />
<rect x="10240" y="6144" width="1024" height="1024" fill="#FFD480" />
<rect x="11264" y="6144" width="1024" height="1024" fill="#FFD480" />
<rect x="12288" y="6144" width="1024" height="1024" fill="#FFD480" />
<rect x="13312" y="6144" width="1024" height="1024" fill="#FFD480" />
<rect x="14336" y="6144" width="1024" height="1024" fill="#FFD480" />
<rect x="15360" y="6144" width="1024" height="1024" fill="#FFD480" />
<rect x="6144" y="7168" width="1024" height="1024" fill="#FFD480" />
<rect x="7168" y="7168" width="1024" height="1024" fill="#FFD480" />
<rect x="8192" y="7168" width="1024" height="1024" fill="#CD9373" />
<rect x="9216" y="7168" width="1024" height="1024" fill="#CD9373" />
<rect x="10240" y="7168" width="1024" height="1024" fill="#CD9373" />
<rect x="11264" y="7168" width="1024" height="1024" fill="#CD9373" />
<rect x="12288" y="7168" width="1024" height="1024" fill="#CD9373" />
<rect x="13312" y="7168" width="1024" height="1024" fill="#CD9373" />
<rect x="14336" y="7168" width="1024" height="1024" fill="#CD9373" />
<rect x="15360" y="7168" width="1024" height="1024" fill="#FFD480" />
<rect x="6144" y="8192" width="1024" height="1024" fill="#FFD480" />
<rect x="7168" y="8192" width="1024" height="1024" fill="#FFD480" />
<rect x="8192" y="8192" width="1024" height="1024" fill="#FFD480" />
<rect x="9216" y="8192" width="1024" height="1024" fill="#FFD480" />
<rect x="10240" y="8192" width="1024" height="1024" fill="#FFD480" />
<rect x="11264" y="8192" width="1024" height="1024" fill="#FFD480" />
<rect x="12288" y="8192" width="1024" height="1024" fill="#FFD480" />
<rect x="13312" y="8192" width="1024" height="1024" fill="#FFD480" />
<rect x="14336" y="8192" width="1024" height="1024" fill="#FFD480" />
<rect x="15360" y="8192" width="1024" height="1024" fill="#FFD480" />
<rect x="6144" y="9216" width="1024" height="1024" fill="#FFD480" />
<rect x="7168" y="9216" width="1024" height="1024" fill="#CD9373" />
<rect x="8192" y="9216" width="1024" height="1024" fill="#CD9373" />
<rect x="9216" y="9216" width="1024" height="1024" fill="#CD9373" />
<rect x="10240" y="9216" width="1024" height="1024" fill="#CD9373" />
<rect x="11264" y="9216" width="1024" height="1024" fill="#CD9373" />
<rect x="12288" y="9216" width="1024" height="1024" fill="#CD9373" />
<rect x="13312" y="9216" width="1024" height="1024" fill="#CD9373" />
<rect x="14336" y="9216" width="1024" height="1024" fill="#FFD480" />
<rect x="15360" y="9216" width="1024" height="1024" fill="#FFD480" />
<rect x="6144" y="10240" width="1024" height="1024" fill="#FFD480" />
<rect x="7168" y="10240" width="1024" height="1024" fill="#FFD480" />
<rect x="8192" y="10240" width="1024" height="1024" fill="#FFD480" />
<rect x="9216" y="10240" width="1024" height="1024" fill="#FFD480" />
<rect x="10240" y="10240" width="1024" height="1024" fill="#FFD480" />
<rect x="11264" y="10240" width="1024" height="1024" fill="#FFD480" />
<rect x="12288" y="10240" width="1024" height="1024" fill="#FFD480" />
<rect x="13312" y="10240" width="1024" height="1024" fill="#FFD480" />
<rect x="14336" y="10240" width="1024" height="1024" fill="#FFD480" />
<rect x="15360" y="10240" width="1024" height="1024" fill="#FFD480" />
<rect x="6144" y="11264" width="1024" height="1024" fill="#FFD480" />
<rect x="7168" y="11264" width="1024" height="1024" fill="#FFD480" />
<rect x="8192" y="11264" width="1024" height="1024" fill="#CD9373" />
<rect x="9216" y="11264" width="1024" height="1024" fill="#CD9373" />
<rect x="10240" y="11264" width="1024" height="1024" fill="#CD9373" />
<rect x="11264" y="11264" width="1024" height="1024" fill="#CD9373" />
<rect x="12288" y="11264" width="1024" height="1024" fill="#CD9373" />
<rect x="13312" y="11264" width="1024" height="1024" fill="#CD9373" />
<rect x="14336" y="11264" width="1024" height="1024" fill="#CD9373" />
<rect x="15360" y="11264" width="1024" height="1024" fill="#FFD480" />
<rect x="6144" y="12288" width="1024" height="1024" fill="#FFD480" />
<rect x="7168" y="12288" width="1024" height="1024" fill="#FFD480" />
<rect x="8192" y="12288" width="1024" height="1024" fill="#FFD480" />
<rect x="9216" y="12288" width="1024" height="1024" fill="#FFD480" />
<rect x="10240" y="12288" width="1024" height="1024" fill="#FFD480" />
<rect x="11264" y="12288" width="1024" height="1024" fill="#FFD480" />
<rect x="12288" y="12288" width="1024" height="1024" fill="#FFD480" />
<rect x="13312" y="12288" width="1024" height="1024" fill="#FFD480" />
<rect x="14336" y="12288" width="1024" height="1024" fill="#FFD480" />
<rect x="15360" y="12288" width="1024" height="1024" fill="#FFD480" />
<rect x="6144" y="13312" width="1024" height="1024" fill="#FFD480" />
<rect x="7168" y="13312" width="1024" height="1024" fill="#CD9373" />
<rect x="8192" y="13312" width="1024" height="1024" fill="#CD9373" />
<rect x="9216" y="13312" width="1024" height="1024" fill="#CD9373" />
<rect x="10240" y="13312" width="1024" height="1024" fill="#CD9373" />
<rect x="11264" y="13312" width="1024" height="1024" fill="#CD9373" />
<rect x="12288" y="13312" width="1024" height="1024" fill="#CD9373" />
<rect x="13312" y="13312" width="1024" height="1024" fill="#CD9373" />
<rect x="14336" y="13312" width="1024" height="1024" fill="#FFD480" />
<rect x="15360" y="13312" width="1024" height="1024" fill="#FFD480" />
<rect x="4096" y="14336" width="1024" height="1024" fill="#FFD480" />
<rect x="5120" y="14336" width="1024" height="1024" fill="#FFD480" />
<rect x="6144" y="14336" width="1024" height="1024" fill="#FFD480" />
<rect x="7168" y="14336" width="1024" height="1024" fill="#FFD480" />
<rect x="8192" y="14336" width="1024" height="1024" fill="#FFD480" />
<rect x="9216" y="14336" width="1024" height="1024" fill="#FFD480" />
<rect x="10240" y="14336" width="1024" height="1024" fill="#FFD480" />
<rect x="11264" y="14336" width="1024" height="1024" fill="#FFD480" />
<rect x="12288" y="14336" width="1024" height="1024" fill="#FFD480" />
<rect x="13312" y="14336" width="1024" height="1024" fill="#FFD480" />
<rect x="14336" y="14336" width="1024" height="1024" fill="#FFD480" />
<rect x="15360" y="14336" width="1024" height="1024" fill="#FFD480" />
<rect x="4096" y="15360" width="1024" height="1024" fill="#FFD480" />
<rect x="5120" y="15360" width="1024" height="1024" fill="#CD9373" />
<rect x="6144" y="15360" width="1024" height="1024" fill="#FFD480" />
<rect x="7168" y="15360" width="1024" height="1024" fill="#FFD480" />
<rect x="8192" y="15360" width="1024" height="1024" fill="#CD9373" />
<rect x="9216" y="15360" width="1024" height="1024" fill="#CD9373" />
<rect x="10240" y="15360" width="1024" height="1024" fill="#CD9373" />
<rect x="11264" y="15360" width="1024" height="1024" fill="#CD9373" />
<rect x="12288" y="15360" width="1024" height="1024" fill="#CD9373" />
<rect x="13312" y="15360" width="1024" height="1024" fill="#CD9373" />
<rect x="14336" y="15360" width="1024" height="1024" fill="#CD9373" />
<rect x="15360" y="15360" width="1024" height="1024" fill="#FFD480" />
<rect x="4096" y="16384" width="1024" height="1024" fill="#FFD480" />
<rect x="5120" y="16384" width="1024" height="1024" fill="#FFD480" />
<rect x="6144" y="16384" width="1024" height="1024" fill="#FFD480" />
<rect x="7168" y="16384" width="1024" height="1024" fill="#FFD480" />
<rect x="8192" y="16384" width="1024" height="1024" fill="#FFD480" />
<rect x="9216" y="16384" width="1024" height="1024" fill="#FFD480" />
<rect x="10240" y="16384" width="1024" height="1024" fill="#FFD480" />
<rect x="11264" y="16384" width="1024" height="1024" fill="#FFD480" />
<rect x="12288" y="16384" width="1024" height="1024" fill="#FFD480" />
<rect x="13312" y="16384" width="1024" height="1024" fill="#FFD480" />
<rect x="14336" y="16384" width="1024" height="1024" fill="#FFD480" />
<rect x="15360" y="16384" width="1024" height="1024" fill="#FFD480" />
<rect x="6144" y="17408" width="1024" height="1024" fill="#FFD480" />
<rect x="7168" y="17408" width="1024" height="1024" fill="#FFD480" />
<rect x="8192" y="17408" width="1024" height="1024" fill="#FFD480" />
<rect x="9216" y="17408" width="1024" height="1024" fill="#FFD480" />
<rect x="10240" y="17408" width="1024" height="1024" fill="#FFD480" />
<rect x="11264" y="17408" width="1024" height="1024" fill="#FFD480" />
<rect x="12288" y="17408" width="1024" height="1024" fill="#FFD480" />
<rect x="13312" y="17408" width="1024" height="1024" fill="#FFD480" />
<rect x="14336" y="17408" width="1024" height="1024" fill="#FFD480" />
<rect x="15360" y="17408" width="1024" height="1024" fill="#FFD480" />
</svg>